{
  "accessors": [
    {
      "bufferView": 0, 
      "componentType": 5126, 
      "count": 4650, 
      "max": [
        5.247316837310791, 
        3.587904691696167, 
        4.519421577453613
      ], 
      "min": [
        -5.229206562042236, 
        -0.04428138583898544, 
        -4.553514003753662
      ], 
      "type": "VEC3"
    }, 
    {
      "bufferView": 1, 
      "componentType": 5126, 
      "count": 4650, 
      "type": "VEC3"
    }, 
    {
      "bufferView": 2, 
      "componentType": 5126, 
      "count": 4650, 
      "type": "VEC2"
    }, 
    {
      "bufferView": 3, 
      "componentType": 5126, 
      "count": 4650, 
      "type": "VEC2"
    }, 
    {
      "bufferView": 4, 
      "componentType": 5123, 
      "count": 4650, 
      "type": "SCALAR"
    }, 
    {
      "bufferView": 5, 
      "componentType": 5126, 
      "count": 84, 
      "max": [
        2.986772060394287, 
        3.3905837535858154, 
        3.542086601257324
      ], 
      "min": [
        -2.9056661128997803, 
        0.09999965131282806, 
        -3.410851001739502
      ], 
      "type": "VEC3"
    }, 
    {
      "bufferView": 6, 
      "componentType": 5126, 
      "count": 84, 
      "type": "VEC3"
    }, 
    {
      "bufferView": 7, 
      "componentType": 5126, 
      "count": 84, 
      "type": "VEC2"
    }, 
    {
      "bufferView": 8, 
      "componentType": 5126, 
      "count": 84, 
      "type": "VEC2"
    }, 
    {
      "bufferView": 9, 
      "componentType": 5123, 
      "count": 84, 
      "type": "SCALAR"
    }, 
    {
      "bufferView": 10, 
      "componentType": 5126, 
      "count": 4, 
      "max": [
        86.68597412109375, 
        33.603309631347656, 
        -307.7828063964844
      ], 
      "min": [
        86.68596649169922, 
        -63.601993560791016, 
        -327.3006591796875
      ], 
      "type": "VEC3"
    }, 
    {
      "bufferView": 11, 
      "componentType": 5126, 
      "count": 4, 
      "type": "VEC3"
    }, 
    {
      "bufferView": 12, 
      "componentType": 5126, 
      "count": 4, 
      "type": "VEC2"
    }, 
    {
      "bufferView": 13, 
      "componentType": 5123, 
      "count": 6, 
      "type": "SCALAR"
    }, 
    {
      "bufferView": 14, 
      "componentType": 5126, 
      "count": 4, 
      "max": [
        267.4294738769531, 
        -188.01377868652344, 
        -72.33000946044922
      ], 
      "min": [
        267.4294738769531, 
        -272.63482666015625, 
        -92.05039978027344
      ], 
      "type": "VEC3"
    }, 
    {
      "bufferView": 15, 
      "componentType": 5126, 
      "count": 4, 
      "type": "VEC3"
    }, 
    {
      "bufferView": 16, 
      "componentType": 5126, 
      "count": 4, 
      "type": "VEC2"
    }, 
    {
      "bufferView": 17, 
      "componentType": 5126, 
      "count": 4, 
      "max": [
        -144.38751220703125, 
        376.1597900390625, 
        -72.21453857421875
      ], 
      "min": [
        -229.00856018066406, 
        376.0411071777344, 
        -91.93458557128906
      ], 
      "type": "VEC3"
    }, 
    {
      "bufferView": 18, 
      "componentType": 5126, 
      "count": 4, 
      "type": "VEC3"
    }, 
    {
      "bufferView": 19, 
      "componentType": 5126, 
      "count": 4, 
      "type": "VEC2"
    }, 
    {
      "bufferView": 20, 
      "componentType": 5126, 
      "count": 4, 
      "max": [
        -155.50592041015625, 
        113.47625732421875, 
        -310.4126892089844
      ], 
      "min": [
        -155.5059356689453, 
        14.679649353027344, 
        -330.37115478515625
      ], 
      "type": "VEC3"
    }, 
    {
      "bufferView": 21, 
      "componentType": 5126, 
      "count": 4, 
      "type": "VEC3"
    }, 
    {
      "bufferView": 22, 
      "componentType": 5126, 
      "count": 4, 
      "type": "VEC2"
    }, 
    {
      "bufferView": 23, 
      "componentType": 5126, 
      "count": 4, 
      "max": [
        174.00843811035156, 
        -319.5528259277344, 
        -72.21701049804688
      ], 
      "min": [
        89.38740539550781, 
        -319.5528259277344, 
        -91.93741607666016
      ], 
      "type": "VEC3"
    }, 
    {
      "bufferView": 24, 
      "componentType": 5126, 
      "count": 4, 
      "type": "VEC3"
    }, 
    {
      "bufferView": 25, 
      "componentType": 5126, 
      "count": 4, 
      "type": "VEC2"
    }, 
    {
      "bufferView": 26, 
      "componentType": 5126, 
      "count": 4, 
      "max": [
        -322.47821044921875, 
        329.06732177734375, 
        -72.21428680419922
      ], 
      "min": [
        -322.47821044921875, 
        244.44627380371094, 
        -91.9346923828125
      ], 
      "type": "VEC3"
    }, 
    {
      "bufferView": 27, 
      "componentType": 5126, 
      "count": 4, 
      "type": "VEC3"
    }, 
    {
      "bufferView": 28, 
      "componentType": 5126, 
      "count": 4, 
      "type": "VEC2"
    }, 
    {
      "bufferView": 29, 
      "componentType": 5126, 
      "count": 4, 
      "max": [
        48.697113037109375, 
        144.3603973388672, 
        -256.533935546875
      ], 
      "min": [
        -11.302814483642578, 
        144.3603973388672, 
        -271.3379211425781
      ], 
      "type": "VEC3"
    }, 
    {
      "bufferView": 30, 
      "componentType": 5126, 
      "count": 4, 
      "type": "VEC3"
    }, 
    {
      "bufferView": 31, 
      "componentType": 5126, 
      "count": 4, 
      "type": "VEC2"
    }, 
    {
      "bufferView": 32, 
      "componentType": 5126, 
      "count": 4, 
      "max": [
        -57.485389709472656, 
        -97.9543228149414, 
        -255.45843505859375
      ], 
      "min": [
        -117.48531341552734, 
        -97.95433044433594, 
        -269.8846435546875
      ], 
      "type": "VEC3"
    }, 
    {
      "bufferView": 33, 
      "componentType": 5126, 
      "count": 4, 
      "type": "VEC3"
    }, 
    {
      "bufferView": 34, 
      "componentType": 5126, 
      "count": 4, 
      "type": "VEC2"
    }, 
    {
      "bufferView": 35, 
      "componentType": 5123, 
      "count": 6, 
      "type": "SCALAR"
    }
  ], 
  "asset": {
    "generator": "Khronos glTF Blender I/O v3.3.27", 
    "version": "2.0"
  }, 
  "bufferViews": [
    {
      "buffer": 0, 
      "byteLength": 55800, 
      "byteOffset": 0, 
      "target": 34962
    }, 
    {
      "buffer": 0, 
      "byteLength": 55800, 
      "byteOffset": 55800, 
      "target": 34962
    }, 
    {
      "buffer": 0, 
      "byteLength": 37200, 
      "byteOffset": 111600, 
      "target": 34962
    }, 
    {
      "buffer": 0, 
      "byteLength": 37200, 
      "byteOffset": 148800, 
      "target": 34962
    }, 
    {
      "buffer": 0, 
      "byteLength": 9300, 
      "byteOffset": 186000, 
      "target": 34963
    }, 
    {
      "buffer": 0, 
      "byteLength": 1008, 
      "byteOffset": 195300, 
      "target": 34962
    }, 
    {
      "buffer": 0, 
      "byteLength": 1008, 
      "byteOffset": 196308, 
      "target": 34962
    }, 
    {
      "buffer": 0, 
      "byteLength": 672, 
      "byteOffset": 197316, 
      "target": 34962
    }, 
    {
      "buffer": 0, 
      "byteLength": 672, 
      "byteOffset": 197988, 
      "target": 34962
    }, 
    {
      "buffer": 0, 
      "byteLength": 168, 
      "byteOffset": 198660, 
      "target": 34963
    }, 
    {
      "buffer": 0, 
      "byteLength": 48, 
      "byteOffset": 198828, 
      "target": 34962
    }, 
    {
      "buffer": 0, 
      "byteLength": 48, 
      "byteOffset": 198876, 
      "target": 34962
    }, 
    {
      "buffer": 0, 
      "byteLength": 32, 
      "byteOffset": 198924, 
      "target": 34962
    }, 
    {
      "buffer": 0, 
      "byteLength": 12, 
      "byteOffset": 198956, 
      "target": 34963
    }, 
    {
      "buffer": 0, 
      "byteLength": 48, 
      "byteOffset": 198968, 
      "target": 34962
    }, 
    {
      "buffer": 0, 
      "byteLength": 48, 
      "byteOffset": 199016, 
      "target": 34962
    }, 
    {
      "buffer": 0, 
      "byteLength": 32, 
      "byteOffset": 199064, 
      "target": 34962
    }, 
    {
      "buffer": 0, 
      "byteLength": 48, 
      "byteOffset": 199096, 
      "target": 34962
    }, 
    {
      "buffer": 0, 
      "byteLength": 48, 
      "byteOffset": 199144, 
      "target": 34962
    }, 
    {
      "buffer": 0, 
      "byteLength": 32, 
      "byteOffset": 199192, 
      "target": 34962
    }, 
    {
      "buffer": 0, 
      "byteLength": 48, 
      "byteOffset": 199224, 
      "target": 34962
    }, 
    {
      "buffer": 0, 
      "byteLength": 48, 
      "byteOffset": 199272, 
      "target": 34962
    }, 
    {
      "buffer": 0, 
      "byteLength": 32, 
      "byteOffset": 199320, 
      "target": 34962
    }, 
    {
      "buffer": 0, 
      "byteLength": 48, 
      "byteOffset": 199352, 
      "target": 34962
    }, 
    {
      "buffer": 0, 
      "byteLength": 48, 
      "byteOffset": 199400, 
      "target": 34962
    }, 
    {
      "buffer": 0, 
      "byteLength": 32, 
      "byteOffset": 199448, 
      "target": 34962
    }, 
    {
      "buffer": 0, 
      "byteLength": 48, 
      "byteOffset": 199480, 
      "target": 34962
    }, 
    {
      "buffer": 0, 
      "byteLength": 48, 
      "byteOffset": 199528, 
      "target": 34962
    }, 
    {
      "buffer": 0, 
      "byteLength": 32, 
      "byteOffset": 199576, 
      "target": 34962
    }, 
    {
      "buffer": 0, 
      "byteLength": 48, 
      "byteOffset": 199608, 
      "target": 34962
    }, 
    {
      "buffer": 0, 
      "byteLength": 48, 
      "byteOffset": 199656, 
      "target": 34962
    }, 
    {
      "buffer": 0, 
      "byteLength": 32, 
      "byteOffset": 199704, 
      "target": 34962
    }, 
    {
      "buffer": 0, 
      "byteLength": 48, 
      "byteOffset": 199736, 
      "target": 34962
    }, 
    {
      "buffer": 0, 
      "byteLength": 48, 
      "byteOffset": 199784, 
      "target": 34962
    }, 
    {
      "buffer": 0, 
      "byteLength": 32, 
      "byteOffset": 199832, 
      "target": 34962
    }, 
    {
      "buffer": 0, 
      "byteLength": 12, 
      "byteOffset": 199864, 
      "target": 34963
    }
  ], 
  "buffers": [
    {
      "byteLength": 199876, 
      "uri": "data:application/octet-stream;base64,"
    }
  ], 
  "extensionsUsed": [
    "KHR_materials_specular", 
    "KHR_materials_ior"
  ], 
  "images": [
    {
      "mimeType": "image/jpeg", 
      "name": "booth-1-texture-1", 
      "uri": "data:image/jpeg;base64,"
    }, 
    {
      "mimeType": "image/jpeg", 
      "name": "booth-1-banner-1", 
      "uri": "data:image/jpeg;base64,"
    }, 
    {
      "mimeType": "image/png", 
      "name": "booth-1-logo-1", 
      "uri": "data:image/png;base64,"
    }
  ], 
  "materials": [
    {
      "doubleSided": true, 
      "extensions": {
        "KHR_materials_ior": {
          "ior": 1.4500000476837158
        }, 
        "KHR_materials_specular": {
          "specularColorFactor": [
            2.371357614441398, 
            2.371357614441398, 
            2.371357614441398
          ]
        }
      }, 
      "name": "lambert3", 
      "pbrMetallicRoughness": {
        "baseColorTexture": {
          "index": 0
        }, 
        "metallicFactor": 0, 
        "roughnessFactor": 0.5527864098548889
      }
    }, 
    {
      "doubleSided": true, 
      "extensions": {
        "KHR_materials_ior": {
          "ior": 1.4500000476837158
        }, 
        "KHR_materials_specular": {
          "specularColorFactor": [
            2.371357614441398, 
            2.371357614441398, 
            2.371357614441398
          ]
        }
      }, 
      "name": "lambert2", 
      "pbrMetallicRoughness": {
        "baseColorTexture": {
          "index": 1
        }, 
        "metallicFactor": 0, 
        "roughnessFactor": 0.5527864098548889
      }
    }, 
    {
      "doubleSided": true, 
      "extensions": {
        "KHR_materials_ior": {
          "ior": 1.4500000476837158
        }, 
        "KHR_materials_specular": {
          "specularColorFactor": [
            2.371357614441398, 
            2.371357614441398, 
            2.371357614441398
          ]
        }
      }, 
      "name": "lambert4.001", 
      "pbrMetallicRoughness": {
        "baseColorTexture": {
          "index": 2
        }, 
        "metallicFactor": 0, 
        "roughnessFactor": 0.5527864098548889
      }
    }
  ], 
  "meshes": [
    {
      "name": "Mesh.008", 
      "primitives": [
        {
          "attributes": {
            "NORMAL": 1, 
            "POSITION": 0, 
            "TEXCOORD_0": 2, 
            "TEXCOORD_1": 3
          }, 
          "indices": 4, 
          "material": 0
        }
      ]
    }, 
    {
      "name": "Mesh.009", 
      "primitives": [
        {
          "attributes": {
            "NORMAL": 6, 
            "POSITION": 5, 
            "TEXCOORD_0": 7, 
            "TEXCOORD_1": 8
          }, 
          "indices": 9, 
          "material": 1
        }
      ]
    }, 
    {
      "name": "Mesh.010", 
      "primitives": [
        {
          "attributes": {
            "NORMAL": 11, 
            "POSITION": 10, 
            "TEXCOORD_0": 12
          }, 
          "indices": 13, 
          "material": 2
        }
      ]
    }, 
    {
      "name": "Mesh.011", 
      "primitives": [
        {
          "attributes": {
            "NORMAL": 15, 
            "POSITION": 14, 
            "TEXCOORD_0": 16
          }, 
          "indices": 13, 
          "material": 2
        }
      ]
    }, 
    {
      "name": "Mesh.012", 
      "primitives": [
        {
          "attributes": {
            "NORMAL": 18, 
            "POSITION": 17, 
            "TEXCOORD_0": 19
          }, 
          "indices": 13, 
          "material": 2
        }
      ]
    }, 
    {
      "name": "Mesh.013", 
      "primitives": [
        {
          "attributes": {
            "NORMAL": 21, 
            "POSITION": 20, 
            "TEXCOORD_0": 22
          }, 
          "indices": 13, 
          "material": 2
        }
      ]
    }, 
    {
      "name": "Mesh.014", 
      "primitives": [
        {
          "attributes": {
            "NORMAL": 24, 
            "POSITION": 23, 
            "TEXCOORD_0": 25
          }, 
          "indices": 13, 
          "material": 2
        }
      ]
    }, 
    {
      "name": "Mesh.015", 
      "primitives": [
        {
          "attributes": {
            "NORMAL": 27, 
            "POSITION": 26, 
            "TEXCOORD_0": 28
          }, 
          "indices": 13, 
          "material": 2
        }
      ]
    }, 
    {
      "name": "Mesh.016", 
      "primitives": [
        {
          "attributes": {
            "NORMAL": 30, 
            "POSITION": 29, 
            "TEXCOORD_0": 31
          }, 
          "indices": 13, 
          "material": 2
        }
      ]
    }, 
    {
      "name": "Mesh.017", 
      "primitives": [
        {
          "attributes": {
            "NORMAL": 33, 
            "POSITION": 32, 
            "TEXCOORD_0": 34
          }, 
          "indices": 35, 
          "material": 2
        }
      ]
    }
  ], 
  "nodes": [
    {
      "mesh": 0, 
      "name": "booth_1", 
      "translation": [
        -0.3158800005912781, 
        0, 
        0.21660928428173065
      ]
    }, 
    {
      "mesh": 1, 
      "name": "booth_1_banners_1", 
      "translation": [
        -0.3158800005912781, 
        0, 
        0.21660928428173065
      ]
    }, 
    {
      "mesh": 2, 
      "name": "booth_1_logo_1", 
      "rotation": [
        0.7071068286895752, 
        0, 
        0, 
        0.7071067094802856
      ], 
      "scale": [
        0.009999999776482582, 
        0.009999999776482582, 
        0.009999999776482582
      ]
    }, 
    {
      "mesh": 3, 
      "name": "booth_1_logo_2", 
      "rotation": [
        0.7071068286895752, 
        0, 
        0, 
        0.7071067094802856
      ], 
      "scale": [
        0.009999999776482582, 
        0.009999999776482582, 
        0.009999999776482582
      ]
    }, 
    {
      "mesh": 4, 
      "name": "booth_1_logo_3", 
      "rotation": [
        0.7071068286895752, 
        0, 
        0, 
        0.7071067094802856
      ], 
      "scale": [
        0.009999999776482582, 
        0.009999999776482582, 
        0.009999999776482582
      ]
    }, 
    {
      "mesh": 5, 
      "name": "booth_1_logo_4", 
      "rotation": [
        0.7071068286895752, 
        0, 
        0, 
        0.7071067094802856
      ], 
      "scale": [
        0.009999999776482582, 
        0.009999999776482582, 
        0.009999999776482582
      ]
    }, 
    {
      "mesh": 6, 
      "name": "booth_1_logo_5", 
      "rotation": [
        0.7071068286895752, 
        0, 
        0, 
        0.7071067094802856
      ], 
      "scale": [
        0.009999999776482582, 
        0.009999999776482582, 
        0.009999999776482582
      ]
    }, 
    {
      "mesh": 7, 
      "name": "booth_1_logo_6", 
      "rotation": [
        0.7071068286895752, 
        0, 
        0, 
        0.7071067094802856
      ], 
      "scale": [
        0.009999999776482582, 
        0.009999999776482582, 
        0.009999999776482582
      ]
    }, 
    {
      "mesh": 8, 
      "name": "booth_1_logo_7", 
      "rotation": [
        0.7071068286895752, 
        0, 
        0, 
        0.7071067094802856
      ], 
      "scale": [
        0.009999999776482582, 
        0.009999999776482582, 
        0.009999999776482582
      ]
    }, 
    {
      "mesh": 9, 
      "name": "booth_1_logo_8", 
      "rotation": [
        0.7071068286895752, 
        0, 
        0, 
        0.7071067094802856
      ], 
      "scale": [
        0.009999999776482582, 
        0.009999999776482582, 
        0.009999999776482582
      ]
    }
  ], 
  "samplers": [
    {
      "magFilter": 9729, 
      "minFilter": 9987
    }
  ], 
  "scene": 0, 
  "scenes": [
    {
      "name": "Scene", 
      "nodes": [
        0, 
        1, 
        2, 
        3, 
        4, 
        5, 
        6, 
        7, 
        8, 
        9
      ]
    }
  ], 
  "textures": [
    {
      "sampler": 0, 
      "source": 0
    }, 
    {
      "sampler": 0, 
      "source": 1
    }, 
    {
      "sampler": 0, 
      "source": 2
    }
  ]
}
